<?xml version="1.0" encoding="utf-8"?>
<!-- Generator: Adobe Illustrator 25.4.0, SVG Export Plug-In . SVG Version: 6.00 Build 0)  -->
<svg version="1.1" id="레이어_1" xmlns="http://www.w3.org/2000/svg" xmlns:xlink="http://www.w3.org/1999/xlink" x="0px"
	 y="0px" viewBox="0 0 140 280" style="enable-background:new 0 0 140 280;" xml:space="preserve">
<style type="text/css">
	.st0{fill:none;stroke:#231815;stroke-width:0.2835;stroke-miterlimit:10;}
</style>
<g>
	<rect x="0" y="-0.2" class="st0" width="140" height="280"/>
	<line class="st0" x1="0" y1="277.8" x2="140" y2="277.8"/>
	<line class="st0" x1="0" y1="275.8" x2="140" y2="275.8"/>
	<line class="st0" x1="0" y1="273.8" x2="140" y2="273.8"/>
	<line class="st0" x1="0" y1="271.8" x2="140" y2="271.8"/>
	<line class="st0" x1="0" y1="269.8" x2="140" y2="269.8"/>
	<line class="st0" x1="0" y1="267.9" x2="140" y2="267.9"/>
	<line class="st0" x1="0" y1="265.9" x2="140" y2="265.9"/>
	<line class="st0" x1="0" y1="263.9" x2="140" y2="263.9"/>
	<line class="st0" x1="0" y1="261.9" x2="140" y2="261.9"/>
	<line class="st0" x1="0" y1="259.9" x2="140" y2="259.9"/>
	<line class="st0" x1="0" y1="257.9" x2="140" y2="257.9"/>
	<line class="st0" x1="0" y1="255.9" x2="140" y2="255.9"/>
	<line class="st0" x1="0" y1="254" x2="140" y2="254"/>
	<line class="st0" x1="0" y1="252" x2="140" y2="252"/>
	<line class="st0" x1="0" y1="250" x2="140" y2="250"/>
	<line class="st0" x1="0" y1="248" x2="140" y2="248"/>
	<line class="st0" x1="0" y1="246" x2="140" y2="246"/>
	<line class="st0" x1="0" y1="244" x2="140" y2="244"/>
	<line class="st0" x1="0" y1="242" x2="140" y2="242"/>
	<line class="st0" x1="0" y1="240.1" x2="140" y2="240.1"/>
	<line class="st0" x1="0" y1="238.1" x2="140" y2="238.1"/>
	<line class="st0" x1="0" y1="236.1" x2="140" y2="236.1"/>
	<line class="st0" x1="0" y1="234.1" x2="140" y2="234.1"/>
	<line class="st0" x1="0" y1="232.1" x2="140" y2="232.1"/>
	<line class="st0" x1="0" y1="230.1" x2="140" y2="230.1"/>
	<line class="st0" x1="0" y1="228.1" x2="140" y2="228.1"/>
	<line class="st0" x1="0" y1="226.2" x2="140" y2="226.2"/>
	<line class="st0" x1="0" y1="224.2" x2="140" y2="224.2"/>
	<line class="st0" x1="0" y1="222.2" x2="140" y2="222.2"/>
	<line class="st0" x1="0" y1="220.2" x2="140" y2="220.2"/>
	<line class="st0" x1="0" y1="218.2" x2="140" y2="218.2"/>
	<line class="st0" x1="0" y1="216.2" x2="140" y2="216.2"/>
	<line class="st0" x1="0" y1="214.2" x2="140" y2="214.2"/>
	<line class="st0" x1="0" y1="212.3" x2="140" y2="212.3"/>
	<line class="st0" x1="0" y1="210.3" x2="140" y2="210.3"/>
	<line class="st0" x1="0" y1="208.3" x2="140" y2="208.3"/>
	<line class="st0" x1="0" y1="206.3" x2="140" y2="206.3"/>
	<line class="st0" x1="0" y1="204.3" x2="140" y2="204.3"/>
	<line class="st0" x1="0" y1="202.3" x2="140" y2="202.3"/>
	<line class="st0" x1="0" y1="200.3" x2="140" y2="200.3"/>
	<line class="st0" x1="0" y1="198.4" x2="140" y2="198.4"/>
	<line class="st0" x1="0" y1="196.4" x2="140" y2="196.4"/>
	<line class="st0" x1="0" y1="194.4" x2="140" y2="194.4"/>
	<line class="st0" x1="0" y1="192.4" x2="140" y2="192.4"/>
	<line class="st0" x1="0" y1="190.4" x2="140" y2="190.4"/>
	<line class="st0" x1="0" y1="188.4" x2="140" y2="188.4"/>
	<line class="st0" x1="0" y1="186.4" x2="140" y2="186.4"/>
	<line class="st0" x1="0" y1="184.5" x2="140" y2="184.5"/>
	<line class="st0" x1="0" y1="182.5" x2="140" y2="182.5"/>
	<line class="st0" x1="0" y1="180.5" x2="140" y2="180.5"/>
	<line class="st0" x1="0" y1="178.5" x2="140" y2="178.5"/>
	<line class="st0" x1="0" y1="176.5" x2="140" y2="176.5"/>
	<line class="st0" x1="0" y1="174.5" x2="140" y2="174.5"/>
	<line class="st0" x1="0" y1="172.5" x2="140" y2="172.5"/>
	<line class="st0" x1="0" y1="170.6" x2="140" y2="170.6"/>
	<line class="st0" x1="0" y1="168.6" x2="140" y2="168.6"/>
	<line class="st0" x1="0" y1="166.6" x2="140" y2="166.6"/>
	<line class="st0" x1="0" y1="164.6" x2="140" y2="164.6"/>
	<line class="st0" x1="0" y1="162.6" x2="140" y2="162.6"/>
	<line class="st0" x1="0" y1="160.6" x2="140" y2="160.6"/>
	<line class="st0" x1="0" y1="158.6" x2="140" y2="158.6"/>
	<line class="st0" x1="0" y1="156.7" x2="140" y2="156.7"/>
	<line class="st0" x1="0" y1="154.7" x2="140" y2="154.7"/>
	<line class="st0" x1="0" y1="152.7" x2="140" y2="152.7"/>
	<line class="st0" x1="0" y1="150.7" x2="140" y2="150.7"/>
	<line class="st0" x1="0" y1="148.7" x2="140" y2="148.7"/>
	<line class="st0" x1="0" y1="146.7" x2="140" y2="146.7"/>
	<line class="st0" x1="0" y1="144.7" x2="140" y2="144.7"/>
	<line class="st0" x1="0" y1="142.8" x2="140" y2="142.8"/>
	<line class="st0" x1="0" y1="140.8" x2="140" y2="140.8"/>
	<line class="st0" x1="0" y1="138.8" x2="140" y2="138.8"/>
	<line class="st0" x1="0" y1="136.8" x2="140" y2="136.8"/>
	<line class="st0" x1="0" y1="134.8" x2="140" y2="134.8"/>
	<line class="st0" x1="0" y1="132.8" x2="140" y2="132.8"/>
	<line class="st0" x1="0" y1="130.8" x2="140" y2="130.8"/>
	<line class="st0" x1="0" y1="128.9" x2="140" y2="128.9"/>
	<line class="st0" x1="0" y1="126.9" x2="140" y2="126.9"/>
	<line class="st0" x1="0" y1="124.9" x2="140" y2="124.9"/>
	<line class="st0" x1="0" y1="122.9" x2="140" y2="122.9"/>
	<line class="st0" x1="0" y1="120.9" x2="140" y2="120.9"/>
	<line class="st0" x1="0" y1="118.9" x2="140" y2="118.9"/>
	<line class="st0" x1="0" y1="116.9" x2="140" y2="116.9"/>
	<line class="st0" x1="0" y1="115" x2="140" y2="115"/>
	<line class="st0" x1="0" y1="113" x2="140" y2="113"/>
	<line class="st0" x1="0" y1="111" x2="140" y2="111"/>
	<line class="st0" x1="0" y1="109" x2="140" y2="109"/>
	<line class="st0" x1="0" y1="107" x2="140" y2="107"/>
	<line class="st0" x1="0" y1="105" x2="140" y2="105"/>
	<line class="st0" x1="0" y1="103" x2="140" y2="103"/>
	<line class="st0" x1="0" y1="101" x2="140" y2="101"/>
	<line class="st0" x1="0" y1="99.1" x2="140" y2="99.1"/>
	<line class="st0" x1="0" y1="97.1" x2="140" y2="97.1"/>
	<line class="st0" x1="0" y1="95.1" x2="140" y2="95.1"/>
	<line class="st0" x1="0" y1="93.1" x2="140" y2="93.1"/>
	<line class="st0" x1="0" y1="91.1" x2="140" y2="91.1"/>
	<line class="st0" x1="0" y1="89.1" x2="140" y2="89.1"/>
	<line class="st0" x1="0" y1="87.1" x2="140" y2="87.1"/>
	<line class="st0" x1="0" y1="85.2" x2="140" y2="85.2"/>
	<line class="st0" x1="0" y1="83.2" x2="140" y2="83.2"/>
	<line class="st0" x1="0" y1="81.2" x2="140" y2="81.2"/>
	<line class="st0" x1="0" y1="79.2" x2="140" y2="79.2"/>
	<line class="st0" x1="0" y1="77.2" x2="140" y2="77.2"/>
	<line class="st0" x1="0" y1="75.2" x2="140" y2="75.2"/>
	<line class="st0" x1="0" y1="73.2" x2="140" y2="73.2"/>
	<line class="st0" x1="0" y1="71.3" x2="140" y2="71.3"/>
	<line class="st0" x1="0" y1="69.3" x2="140" y2="69.3"/>
	<line class="st0" x1="0" y1="67.3" x2="140" y2="67.3"/>
	<line class="st0" x1="0" y1="65.3" x2="140" y2="65.3"/>
	<line class="st0" x1="0" y1="63.3" x2="140" y2="63.3"/>
	<line class="st0" x1="0" y1="61.3" x2="140" y2="61.3"/>
	<line class="st0" x1="0" y1="59.3" x2="140" y2="59.3"/>
	<line class="st0" x1="0" y1="57.4" x2="140" y2="57.4"/>
	<line class="st0" x1="0" y1="55.4" x2="140" y2="55.4"/>
	<line class="st0" x1="0" y1="53.4" x2="140" y2="53.4"/>
	<line class="st0" x1="0" y1="51.4" x2="140" y2="51.4"/>
	<line class="st0" x1="0" y1="49.4" x2="140" y2="49.4"/>
	<line class="st0" x1="0" y1="47.4" x2="140" y2="47.4"/>
	<line class="st0" x1="0" y1="45.4" x2="140" y2="45.4"/>
	<line class="st0" x1="0" y1="43.5" x2="140" y2="43.5"/>
	<line class="st0" x1="0" y1="41.5" x2="140" y2="41.5"/>
	<line class="st0" x1="0" y1="39.5" x2="140" y2="39.5"/>
	<line class="st0" x1="0" y1="37.5" x2="140" y2="37.5"/>
	<line class="st0" x1="0" y1="35.5" x2="140" y2="35.5"/>
	<line class="st0" x1="0" y1="33.5" x2="140" y2="33.5"/>
	<line class="st0" x1="0" y1="31.5" x2="140" y2="31.5"/>
	<line class="st0" x1="0" y1="29.6" x2="140" y2="29.6"/>
	<line class="st0" x1="0" y1="27.6" x2="140" y2="27.6"/>
	<line class="st0" x1="0" y1="25.6" x2="140" y2="25.6"/>
	<line class="st0" x1="0" y1="23.6" x2="140" y2="23.6"/>
	<line class="st0" x1="0" y1="21.6" x2="140" y2="21.6"/>
	<line class="st0" x1="0" y1="19.6" x2="140" y2="19.6"/>
	<line class="st0" x1="0" y1="17.6" x2="140" y2="17.6"/>
	<line class="st0" x1="0" y1="15.7" x2="140" y2="15.7"/>
	<line class="st0" x1="0" y1="13.7" x2="140" y2="13.7"/>
	<line class="st0" x1="0" y1="11.7" x2="140" y2="11.7"/>
	<line class="st0" x1="0" y1="9.7" x2="140" y2="9.7"/>
	<line class="st0" x1="0" y1="7.7" x2="140" y2="7.7"/>
	<line class="st0" x1="0" y1="5.7" x2="140" y2="5.7"/>
	<line class="st0" x1="0" y1="3.7" x2="140" y2="3.7"/>
	<line class="st0" x1="0" y1="1.8" x2="140" y2="1.8"/>
	<line class="st0" x1="138" y1="-0.2" x2="138" y2="279.8"/>
	<line class="st0" x1="136.1" y1="-0.2" x2="136.1" y2="279.8"/>
	<line class="st0" x1="134.1" y1="-0.2" x2="134.1" y2="279.8"/>
	<line class="st0" x1="132.1" y1="-0.2" x2="132.1" y2="279.8"/>
	<line class="st0" x1="130.1" y1="-0.2" x2="130.1" y2="279.8"/>
	<line class="st0" x1="128.2" y1="-0.2" x2="128.2" y2="279.8"/>
	<line class="st0" x1="126.2" y1="-0.2" x2="126.2" y2="279.8"/>
	<line class="st0" x1="124.2" y1="-0.2" x2="124.2" y2="279.8"/>
	<line class="st0" x1="122.3" y1="-0.2" x2="122.3" y2="279.8"/>
	<line class="st0" x1="120.3" y1="-0.2" x2="120.3" y2="279.8"/>
	<line class="st0" x1="118.3" y1="-0.2" x2="118.3" y2="279.8"/>
	<line class="st0" x1="116.3" y1="-0.2" x2="116.3" y2="279.8"/>
	<line class="st0" x1="114.4" y1="-0.2" x2="114.4" y2="279.8"/>
	<line class="st0" x1="112.4" y1="-0.2" x2="112.4" y2="279.8"/>
	<line class="st0" x1="110.4" y1="-0.2" x2="110.4" y2="279.8"/>
	<line class="st0" x1="108.5" y1="-0.2" x2="108.5" y2="279.8"/>
	<line class="st0" x1="106.5" y1="-0.2" x2="106.5" y2="279.8"/>
	<line class="st0" x1="104.5" y1="-0.2" x2="104.5" y2="279.8"/>
	<line class="st0" x1="102.5" y1="-0.2" x2="102.5" y2="279.8"/>
	<line class="st0" x1="100.6" y1="-0.2" x2="100.6" y2="279.8"/>
	<line class="st0" x1="98.6" y1="-0.2" x2="98.6" y2="279.8"/>
	<line class="st0" x1="96.6" y1="-0.2" x2="96.6" y2="279.8"/>
	<line class="st0" x1="94.6" y1="-0.2" x2="94.6" y2="279.8"/>
	<line class="st0" x1="92.7" y1="-0.2" x2="92.7" y2="279.8"/>
	<line class="st0" x1="90.7" y1="-0.2" x2="90.7" y2="279.8"/>
	<line class="st0" x1="88.7" y1="-0.2" x2="88.7" y2="279.8"/>
	<line class="st0" x1="86.8" y1="-0.2" x2="86.8" y2="279.8"/>
	<line class="st0" x1="84.8" y1="-0.2" x2="84.8" y2="279.8"/>
	<line class="st0" x1="82.8" y1="-0.2" x2="82.8" y2="279.8"/>
	<line class="st0" x1="80.8" y1="-0.2" x2="80.8" y2="279.8"/>
	<line class="st0" x1="78.9" y1="-0.2" x2="78.9" y2="279.8"/>
	<line class="st0" x1="76.9" y1="-0.2" x2="76.9" y2="279.8"/>
	<line class="st0" x1="74.9" y1="-0.2" x2="74.9" y2="279.8"/>
	<line class="st0" x1="73" y1="-0.2" x2="73" y2="279.8"/>
	<line class="st0" x1="71" y1="-0.2" x2="71" y2="279.8"/>
	<line class="st0" x1="69" y1="-0.2" x2="69" y2="279.8"/>
	<line class="st0" x1="67" y1="-0.2" x2="67" y2="279.8"/>
	<line class="st0" x1="65.1" y1="-0.2" x2="65.1" y2="279.8"/>
	<line class="st0" x1="63.1" y1="-0.2" x2="63.1" y2="279.8"/>
	<line class="st0" x1="61.1" y1="-0.2" x2="61.1" y2="279.8"/>
	<line class="st0" x1="59.2" y1="-0.2" x2="59.2" y2="279.8"/>
	<line class="st0" x1="57.2" y1="-0.2" x2="57.2" y2="279.8"/>
	<line class="st0" x1="55.2" y1="-0.2" x2="55.2" y2="279.8"/>
	<line class="st0" x1="53.2" y1="-0.2" x2="53.2" y2="279.8"/>
	<line class="st0" x1="51.3" y1="-0.2" x2="51.3" y2="279.8"/>
	<line class="st0" x1="49.3" y1="-0.2" x2="49.3" y2="279.8"/>
	<line class="st0" x1="47.3" y1="-0.2" x2="47.3" y2="279.8"/>
	<line class="st0" x1="45.4" y1="-0.2" x2="45.4" y2="279.8"/>
	<line class="st0" x1="43.4" y1="-0.2" x2="43.4" y2="279.8"/>
	<line class="st0" x1="41.4" y1="-0.2" x2="41.4" y2="279.8"/>
	<line class="st0" x1="39.4" y1="-0.2" x2="39.4" y2="279.8"/>
	<line class="st0" x1="37.5" y1="-0.2" x2="37.5" y2="279.8"/>
	<line class="st0" x1="35.5" y1="-0.2" x2="35.5" y2="279.8"/>
	<line class="st0" x1="33.5" y1="-0.2" x2="33.5" y2="279.8"/>
	<line class="st0" x1="31.5" y1="-0.2" x2="31.5" y2="279.8"/>
	<line class="st0" x1="29.6" y1="-0.2" x2="29.6" y2="279.8"/>
	<line class="st0" x1="27.6" y1="-0.2" x2="27.6" y2="279.8"/>
	<line class="st0" x1="25.6" y1="-0.2" x2="25.6" y2="279.8"/>
	<line class="st0" x1="23.7" y1="-0.2" x2="23.7" y2="279.8"/>
	<line class="st0" x1="21.7" y1="-0.2" x2="21.7" y2="279.8"/>
	<line class="st0" x1="19.7" y1="-0.2" x2="19.7" y2="279.8"/>
	<line class="st0" x1="17.7" y1="-0.2" x2="17.7" y2="279.8"/>
	<line class="st0" x1="15.8" y1="-0.2" x2="15.8" y2="279.8"/>
	<line class="st0" x1="13.8" y1="-0.2" x2="13.8" y2="279.8"/>
	<line class="st0" x1="11.8" y1="-0.2" x2="11.8" y2="279.8"/>
	<line class="st0" x1="9.9" y1="-0.2" x2="9.9" y2="279.8"/>
	<line class="st0" x1="7.9" y1="-0.2" x2="7.9" y2="279.8"/>
	<line class="st0" x1="5.9" y1="-0.2" x2="5.9" y2="279.8"/>
	<line class="st0" x1="3.9" y1="-0.2" x2="3.9" y2="279.8"/>
	<line class="st0" x1="2" y1="-0.2" x2="2" y2="279.8"/>
</g>
</svg>
